<svg width="45" height="47" viewBox="0 0 45 47" fill="none" xmlns="http://www.w3.org/2000/svg">
<path d="M6.97162 0L16.0024 34.6723L45 37.0036L35.966 2.33134L6.97162 0ZM5.07586 0.159734C2.02096 1.35027 -0.507318 5.48401 0.0872987 7.71146L0.413185 8.89268C0.480066 8.7162 0.549555 8.53952 0.623055 8.36324C1.61666 5.98607 3.2862 3.67399 5.67439 2.45668L5.07576 0.159734H5.07586ZM9.58181 2.05549L34.4307 4.22067L42.5464 34.8195L17.5441 32.8076L9.58191 2.05559L9.58181 2.05549ZM6.16302 4.33027C4.49247 5.334 3.16326 7.14472 2.35266 9.08379C1.82673 10.3424 1.54677 11.6548 1.47527 12.747L7.97434 36.3391C8.00372 36.2839 8.0317 36.2283 8.06208 36.1731C9.12497 34.2425 10.8519 32.3933 13.1884 31.3129L6.16302 4.33027ZM13.671 33.165C11.8989 34.0741 10.5481 35.5426 9.70404 37.0756C9.25643 37.8883 8.97586 38.7161 8.83287 39.4571L10.0049 43.7091L10.1678 43.7217C9.78426 40.9614 11.3091 37.6606 14.304 35.5966L13.6709 33.165H13.671ZM16.3126 36.5772C13.0485 38.3079 11.6509 41.8317 12.1168 43.8877L41.1802 46.3474C40.6473 45.5703 40.3142 44.5585 40.3185 43.5055L38.0561 42.5967L42.7313 41.8637L41.3681 40.5632C41.9302 39.8706 42.7407 39.2571 43.8529 38.7928L16.3126 36.5774V36.5772Z" fill="#FFECD6"/>
</svg>
