<svg width="45" height="57" viewBox="0 0 45 57" fill="none" xmlns="http://www.w3.org/2000/svg">
<path d="M29.7033 0.000118683L27.6692 5.01996C28.5067 5.34961 29.3147 5.7372 30.0883 6.17871L31.1119 4.60244L32.9733 5.8113L31.9477 7.39018C32.0486 7.46475 32.1486 7.54051 32.2481 7.61699L29.9034 10.3167C30.4964 10.7617 31.056 11.2489 31.5778 11.7735L33.9235 9.07248C33.9457 9.09433 33.9686 9.11595 33.9909 9.1378L35.3915 7.87693L36.8763 9.52634L35.4763 10.7867C36.0356 11.4858 36.5456 12.2256 37.0017 13.0012L38.6777 12.1474L39.6849 14.1249L38.0115 14.9771C38.3696 15.7938 38.6712 16.6404 38.9114 17.5128L40.7463 17.1229L41.2075 19.2936L39.3735 19.6834C39.5058 20.559 39.5765 21.4548 39.5837 22.3659L41.4571 22.4641L41.3408 24.6804L39.4717 24.5824C39.3725 25.4861 39.2088 26.3703 38.986 27.2309L40.7609 27.8076L40.0749 29.9183L38.303 29.3423C37.9744 30.1843 37.5869 30.997 37.1452 31.775L38.7057 32.7888L37.4969 34.65L35.9377 33.6373C35.4042 34.3627 34.8194 35.0477 34.1892 35.6885L35.4313 37.068L33.7819 38.553L32.5425 37.1763C31.8419 37.7384 31.1009 38.2524 30.3231 38.711L31.1602 40.3542L29.1831 41.3617L28.3479 39.7226C27.5288 40.0829 26.6789 40.3858 25.8035 40.6274L26.1851 42.4233L24.0143 42.8845L23.6332 41.0906C22.7538 41.2242 21.8545 41.2966 20.9397 41.304L20.8438 43.1339L18.6277 43.0175L18.7235 41.1926C17.8157 41.0935 16.9272 40.9304 16.063 40.7067L15.5003 42.438L13.3898 41.752L13.9515 40.0242C13.1055 39.6941 12.2894 39.3042 11.5082 38.8601L10.5193 40.3827L8.65829 39.1739L9.64746 37.651C9.53703 37.5697 9.42802 37.4867 9.31948 37.4031L11.6764 34.6893C11.083 34.2449 10.5233 33.7581 10.0011 33.2338L7.64418 35.9476C7.62565 35.9295 7.60689 35.9117 7.58837 35.8936L6.23986 37.1079L4.75504 35.4585L6.10247 34.2453C5.56062 33.5685 5.06497 32.853 4.61931 32.1043L0 34.9198C1.12989 36.8072 2.50939 38.5281 4.09349 40.0364L1.65024 42.8496L3.32602 44.3048L5.76926 41.4913C9.89695 44.7595 15.1148 46.7115 20.7888 46.7115C20.9509 46.7115 21.1125 46.7088 21.2737 46.7056V49.018C17.2204 50.8415 14.2539 53.3739 11.8032 56.1317H35.2607C32.9245 53.2437 29.9367 50.9076 25.6678 49.041V46.22C36.7004 43.9633 45 34.2046 45 22.5084C45 15.6098 42.1126 9.3855 37.4805 4.97686L39.9243 2.16276L38.2488 0.707739L35.8045 3.52207C33.9682 2.06859 31.9155 0.876599 29.7037 0L29.7033 0.000118683ZM20.7844 9.81632C13.7626 9.81632 8.09756 15.4797 8.09756 22.4986C8.09756 29.5178 13.7626 35.1809 20.7844 35.1809C27.8062 35.1809 33.4712 29.5178 33.4712 22.4986C33.4712 21.3854 33.3284 20.3063 33.0603 19.2782C31.8439 22.2572 30.3196 24.6397 27.6092 27.2284C25.6039 27.0518 24.081 26.2689 22.7829 24.8574C23.5011 23.8053 24.3373 22.8126 26.0005 22.2329C24.5086 18.8743 23.8405 15.5155 23.4601 12.1571C24.9402 12.7021 25.8541 13.5738 26.9317 15.1203C27.8475 15.3218 28.9342 14.3062 29.695 13.4608C27.4063 11.2058 24.262 9.81632 20.7844 9.81632ZM16.9274 17.5385C19.0198 19.03 20.7757 21.2774 21.4434 23.7748C20.1295 24.874 19.4358 26.2833 19.078 27.8605C21.0916 28.8378 22.6461 30.3895 24.0238 32.1615V32.1624C19.9344 31.758 15.9199 31.0776 12.3039 28.9367C10.8585 26.4639 10.0349 23.9908 9.9384 21.518C11.9096 20.6244 13.8808 20.9319 15.8521 21.6243C16.9472 20.2622 16.9429 19.1398 16.9274 17.5384V17.5385Z" fill="#FFECD6"/>
</svg>
